<?xml version="1.0" encoding="utf-8"?>
<!-- Generator: Adobe Illustrator 19.0.0, SVG Export Plug-In . SVG Version: 6.00 Build 0)  -->
<svg version="1.1" id="Layer_2" xmlns="http://www.w3.org/2000/svg" xmlns:xlink="http://www.w3.org/1999/xlink" x="0px" y="0px"
	 viewBox="0 0 235 52.2" style="enable-background:new 0 0 235 52.2;" xml:space="preserve">
<style type="text/css">
	.st0{fill:#FFFFFF;}
</style>
<g>
	<path class="st0" d="M43.8,26.4c0,16-8.5,25.9-21.9,25.9C8.4,52.2,0,42.1,0,26.3C0,10.4,8.5,0.2,21.7,0.2
		C35.8,0.2,43.8,10.7,43.8,26.4z M12,25.6C12,40,15.6,44.2,22,44.2c6.4,0,9.9-5.2,9.9-17.6c0-14-3.9-18.2-10.2-18.2
		C14.9,8.3,12,13.5,12,25.6z"/>
	<path class="st0" d="M77.5,51V18c0-6.8-1.6-8.6-5.7-8.6c-3.1,0-7.6,2.4-10.9,5.6v36H50.4V14.5c0-5.2-0.5-8.2-1.9-11.8L58.3,0
		c1.2,2.3,1.8,4.4,1.8,7.1c5.3-4.5,9.9-6.9,15.2-6.9c7.6,0,12.9,4.6,12.9,13.7v37H77.5z"/>
	<path class="st0" d="M94.3,29.3v-10h21.5v10H94.3z"/>
	<path class="st0" d="M123.5,0.5h5.9V51h-5.9V0.5z"/>
	<path class="st0" d="M136.2,0.5h10.1c7.7,0,11.2,0.4,16.2,3.9c5.7,4.1,8.5,11.5,8.5,21.4c0,8.8-2.4,15.1-5.7,18.8
		c-4.4,4.9-8.8,6.3-15.9,6.3h-13.2V0.5z M142.3,5.5V46h6c5.2,0,10.1-0.6,12.8-5.3c2.3-3.9,3.4-8.8,3.4-14.1c0-7.6-1-12.4-4.3-16.5
		c-3.3-3.9-6.5-4.6-11.8-4.6H142.3z"/>
	<path class="st0" d="M175.6,0.5h6v45.3h19.9l-0.8,5.1h-25.1V0.5z"/>
	<path class="st0" d="M206.7,0.5h27.6l-0.8,5h-20.6v16.5h17.3v5.2h-17.3v18.4H235V51h-28.3V0.5z"/>
</g>
</svg>
