<?xml version="1.0" encoding="utf-8"?>
<!-- Generator: Adobe Illustrator 19.0.0, SVG Export Plug-In . SVG Version: 6.00 Build 0)  -->
<svg version="1.1" id="Layer_1" xmlns="http://www.w3.org/2000/svg" xmlns:xlink="http://www.w3.org/1999/xlink" x="0px" y="0px"
	 viewBox="0 0 158.2 158.2" style="enable-background:new 0 0 158.2 158.2;" xml:space="preserve">
<style type="text/css">
	.st0{fill:#ED2D6D;}
	.st1{fill:#FFFFFF;}
</style>
<circle id="XMLID_12_" class="st0" cx="79.1" cy="79.1" r="79.1"/>
<g id="XMLID_1_">
	<path id="XMLID_4_" class="st1" d="M78.8,79.4c0,16-8.5,25.9-21.9,25.9c-13.4,0-21.8-10.1-21.8-26c0-15.9,8.5-26.1,21.7-26.1
		C70.8,53.2,78.8,63.7,78.8,79.4z M47,78.6c0,14.4,3.6,18.6,10.1,18.6c6.4,0,9.9-5.2,9.9-17.6c0-14-3.9-18.2-10.2-18.2
		C49.9,61.3,47,66.5,47,78.6z"/>
	<path id="XMLID_2_" class="st1" d="M112.5,104V71c0-6.8-1.6-8.6-5.7-8.6c-3.1,0-7.6,2.4-10.9,5.6v36H85.4V67.5
		c0-5.2-0.5-8.2-1.9-11.8l9.8-2.7c1.2,2.3,1.8,4.4,1.8,7.1c5.3-4.5,9.9-6.9,15.2-6.9c7.6,0,12.9,4.6,12.9,13.7v37H112.5z"/>
</g>
</svg>
