<?xml version="1.0" encoding="utf-8"?>
<!-- Generator: Adobe Illustrator 19.0.0, SVG Export Plug-In . SVG Version: 6.00 Build 0)  -->
<svg version="1.1" id="Layer_1" xmlns="http://www.w3.org/2000/svg" xmlns:xlink="http://www.w3.org/1999/xlink" x="0px" y="0px"
	 viewBox="-324 273.4 192.4 48.9" style="enable-background:new -324 273.4 192.4 48.9;" xml:space="preserve">
<style type="text/css">
	.st0{fill:#818181;}
	.st1{fill:#FFFFFF;}
	.st2{fill:#E57B7D;}
</style>
<path id="XMLID_25_" class="st0" d="M-228.3,319.4c37.9,0,73.2-0.8,96.7-2.3v-43.7H-324l0.1,43.7
	C-300.4,318.5-265.6,319.4-228.3,319.4z"/>
<g id="XMLID_2_">
	<path id="XMLID_3_" class="st1" d="M-304,307.6h-2.4v-20.2h-5.8v-2.2h14v2.2h-5.8V307.6z"/>
	<path id="XMLID_8_" class="st1" d="M-276,303.5l5.2-18.3h2.3l-6.5,22.4h-2.3l-4.7-18.4h-0.1l-5.1,18.4h-2.3l-6.1-22.4h2.5l4.9,18.3
		h0.1l5.1-18.3h2.2L-276,303.5L-276,303.5z"/>
	<path id="XMLID_10_" class="st1" d="M-264.8,285.2h2.4v22.4h-2.4V285.2z"/>
	<path id="XMLID_12_" class="st1" d="M-253.6,289.6v18h-2.2v-22.4h1.8l13.4,18v-18h2.2v22.4h-1.8L-253.6,289.6z"/>
	<path id="XMLID_14_" class="st1" d="M-222.4,288.8c-0.8-0.4-1.7-0.6-2.6-0.6s-1.7,0.2-2.4,0.7c-0.6,0.4-1,1.1-1,2
		c0,0.4,0.1,0.8,0.4,1.1c0.2,0.3,0.6,0.6,1,0.8c0.4,0.2,0.8,0.5,1.3,0.6c0.5,0.2,0.9,0.3,1.4,0.5c0.8,0.3,1.7,0.6,2.5,0.9
		c0.8,0.4,1.6,0.8,2.3,1.3c0.7,0.5,1.2,1.2,1.6,2c0.4,0.8,0.6,1.7,0.6,2.9c0,1.2-0.3,2.3-0.8,3.2c-0.5,0.9-1.2,1.6-2,2.2
		c-0.8,0.6-1.7,1-2.7,1.2c-1,0.2-1.9,0.4-2.8,0.4c-1.7,0-3.2-0.3-4.6-0.9c-1.3-0.6-2.6-1.5-3.8-2.7l2.7-2.6c0.5,0.5,1,0.9,1.4,1.2
		c0.4,0.4,0.9,0.6,1.3,0.9c0.4,0.3,0.9,0.4,1.4,0.5s1,0.2,1.6,0.2c0.5,0,1-0.1,1.5-0.2s0.9-0.3,1.3-0.6c0.4-0.3,0.7-0.6,0.9-1
		s0.3-0.9,0.3-1.5c0-0.5-0.1-1-0.4-1.4c-0.3-0.4-0.6-0.7-1-1c-0.4-0.3-0.9-0.5-1.5-0.8c-0.6-0.2-1.1-0.4-1.7-0.6
		c-0.7-0.3-1.5-0.6-2.2-0.9c-0.7-0.3-1.4-0.8-2-1.2c-0.6-0.4-1.1-1.1-1.4-1.8c-0.3-0.7-0.5-1.5-0.5-2.5c0-1.1,0.2-2,0.6-2.8
		c0.4-0.8,0.9-1.4,1.6-1.9s1.4-0.9,2.3-1.2c0.9-0.3,1.7-0.4,2.7-0.4c1.4,0,2.7,0.2,3.9,0.6c1.2,0.4,2.3,1,3.4,1.9l-2.3,2.8
		C-220.9,289.6-221.6,289.2-222.4,288.8z"/>
	<path id="XMLID_16_" class="st1" d="M-202.2,307.6l-6.9-17.5v17.5h-4v-22.4h6l6.3,16.4l6.5-16.4h5.9v22.4h-4v-17.4l-7.1,17.4
		C-199.5,307.6-202.2,307.6-202.2,307.6z"/>
	<path id="XMLID_18_" class="st1" d="M-182.9,285.2h4v22.4h-4V285.2z"/>
	<path id="XMLID_20_" class="st1" d="M-173.5,285.2h4v19h9.4v3.4h-13.4V285.2z"/>
	<path id="XMLID_22_" class="st1" d="M-157.3,285.2h14v3.4h-10v5.8h10v3.4h-10v6.4h10v3.4h-14V285.2z"/>
</g>
<path id="XMLID_7_" class="st2" d="M-228.3,319.3c-37.2,0-72.1-0.8-95.6-2.2v3c23.6,1.4,58.4,2.2,95.6,2.2c37.9,0,73.1-0.8,96.6-2.3
	v-3C-155.2,318.5-190.5,319.3-228.3,319.3z"/>
</svg>
