<?xml version="1.0" encoding="utf-8"?>
<!-- Generator: Adobe Illustrator 21.1.0, SVG Export Plug-In . SVG Version: 6.00 Build 0)  -->
<svg version="1.1" id="Layer_2" xmlns="http://www.w3.org/2000/svg" xmlns:xlink="http://www.w3.org/1999/xlink" x="0px" y="0px"
	 viewBox="0 0 349.7 34.4" style="enable-background:new 0 0 349.7 34.4;" xml:space="preserve">
<style type="text/css">
	.st0{fill:#EF572C;}
	.st1{fill:#59595B;}
</style>
<g>
	<path class="st0" d="M12.5,0.4l-0.1,0.9l-0.1,0.1C11.4,1.1,10.4,1,9.3,1C7.7,1,6.5,1.5,5.6,2.5C4.8,3.5,4.4,5,4.4,6.9v5.2h6
		l0.1,0.2l-0.1,0.8h-6v20.7h-1V13.1H0.2L0,12.9l0.1-0.8h3.3V6.9c0-2.2,0.5-4,1.5-5.1C5.9,0.6,7.4,0,9.3,0C10.2,0,11.3,0.1,12.5,0.4z
		"/>
	<path class="st0" d="M29.1,14.8c1.6,1.9,2.4,4.6,2.4,8c0,3.5-0.8,6.2-2.4,8.3c-1.6,2-3.8,3-6.7,3c-2.7,0-4.9-1-6.4-2.9
		c-1.6-1.9-2.4-4.6-2.4-8c0-3.5,0.8-6.2,2.4-8.3c1.6-2,3.8-3,6.7-3C25.4,11.9,27.6,12.8,29.1,14.8z M16.7,15.6
		c-1.5,1.8-2.2,4.4-2.2,7.6c0,3.1,0.7,5.5,2.1,7.3c1.4,1.8,3.3,2.6,5.7,2.6c2.5,0,4.5-0.9,6-2.7c1.5-1.8,2.2-4.4,2.2-7.6
		c0-3.1-0.7-5.5-2.1-7.3c-1.4-1.8-3.3-2.6-5.7-2.6C20.2,12.8,18.2,13.7,16.7,15.6z"/>
	<path class="st0" d="M55.3,32.4l-0.2,0.9c-0.6,0.4-1.4,0.7-2.2,0.7c-0.9,0-1.6-0.3-2-1c-0.4-0.6-0.6-1.6-0.6-3h-0.2
		c-2.5,2.7-5,4-7.7,4c-1.8,0-3.2-0.6-4.2-1.7c-1-1.1-1.5-2.7-1.5-4.8V12.2l1-0.2v15.4c0,1.8,0.4,3.2,1.2,4.2c0.8,1,2,1.5,3.6,1.5
		c1.3,0,2.6-0.4,3.9-1.1c1.3-0.8,2.6-1.8,3.8-3.3V12.2l1-0.2v18c0,1,0.1,1.8,0.4,2.3c0.3,0.5,0.7,0.7,1.3,0.7c0.7,0,1.4-0.2,2-0.7
		L55.3,32.4z"/>
	<path class="st0" d="M69.4,12.2v0.9l-0.2,0.1c-0.5-0.1-0.9-0.1-1.3-0.1c-1.1,0-2.2,0.5-3.3,1.5c-1.1,1-2.1,2.6-3.2,4.8v14.4h-1
		V12.2l1-0.2v5.3h0.2c1-1.8,2-3.1,3.1-4c1.1-0.9,2.2-1.3,3.5-1.3C68.5,12.1,69,12.1,69.4,12.2z"/>
	<path class="st0" d="M94.1,12.4c1.1,0.4,2.1,0.9,2.9,1.5l-0.3,0.8h-0.3c-0.7-0.5-1.6-1-2.6-1.3c-1-0.4-2-0.5-3-0.5
		c-2.3,0-4.1,0.9-5.5,2.8c-1.4,1.9-2.1,4.4-2.1,7.5c0,3,0.7,5.4,2,7.2c1.4,1.8,3.2,2.7,5.5,2.7c1.1,0,2.1-0.2,3.2-0.6
		c1.1-0.4,2-0.9,2.9-1.5l0.3,0.1L97.1,32c-0.8,0.6-1.8,1.1-2.9,1.5c-1.1,0.4-2.3,0.6-3.4,0.6c-2.6,0-4.6-1-6.1-3
		c-1.5-2-2.3-4.6-2.3-7.9c0-2.3,0.4-4.3,1.1-6c0.7-1.7,1.7-3,3-3.9c1.3-0.9,2.8-1.4,4.5-1.4C91.9,11.9,93,12,94.1,12.4z"/>
	<path class="st0" d="M116.2,14.8c1.6,1.9,2.4,4.6,2.4,8c0,3.5-0.8,6.2-2.4,8.3c-1.6,2-3.8,3-6.7,3c-2.7,0-4.9-1-6.4-2.9
		c-1.6-1.9-2.4-4.6-2.4-8c0-3.5,0.8-6.2,2.4-8.3c1.6-2,3.8-3,6.7-3C112.4,11.9,114.6,12.8,116.2,14.8z M103.8,15.6
		c-1.5,1.8-2.2,4.4-2.2,7.6c0,3.1,0.7,5.5,2.1,7.3c1.4,1.8,3.3,2.6,5.7,2.6c2.5,0,4.5-0.9,6-2.7c1.5-1.8,2.2-4.4,2.2-7.6
		c0-3.1-0.7-5.5-2.1-7.3c-1.4-1.8-3.3-2.6-5.7-2.6C107.2,12.8,105.2,13.7,103.8,15.6z"/>
	<path class="st0" d="M133.4,12.2v0.9l-0.2,0.1c-0.5-0.1-0.9-0.1-1.3-0.1c-1.1,0-2.2,0.5-3.3,1.5c-1.1,1-2.1,2.6-3.2,4.8v14.4h-1
		V12.2l1-0.2v5.3h0.2c1-1.8,2-3.1,3.1-4c1.1-0.9,2.2-1.3,3.5-1.3C132.6,12.1,133,12.1,133.4,12.2z"/>
	<path class="st0" d="M151.8,13.6c1.1,1.1,1.6,2.7,1.6,4.8v15.4h-1.1l0.1-15.4c0-1.8-0.5-3.1-1.4-4.1c-0.9-1-2.2-1.5-3.9-1.5
		c-1.2,0-2.5,0.4-3.9,1.2c-1.3,0.8-2.6,1.9-3.8,3.4v16.4h-1V12.2l1-0.2v3.8h0.2c1.2-1.3,2.4-2.3,3.7-3c1.3-0.7,2.6-1,3.8-1
		C149.1,11.9,150.7,12.4,151.8,13.6z"/>
	<path class="st0" d="M172.6,13.9c1.2,1.4,1.8,3.3,1.8,5.8c0,0.6,0,1.1,0,1.4l-0.3,0.3l-14.6,0.2c0,0.3,0,0.8,0,1.4
		c0,3,0.7,5.4,2.1,7.2c1.4,1.8,3.3,2.7,5.7,2.7c1.2,0,2.3-0.2,3.5-0.6c1.1-0.4,2.1-0.9,2.9-1.5l0.3,0.1l-0.1,1c-2,1.3-4.2,2-6.6,2
		c-2.7,0-4.8-1-6.3-2.9c-1.6-2-2.3-4.6-2.3-7.9c0-3.5,0.8-6.2,2.4-8.3c1.6-2,3.8-3.1,6.5-3.1C169.7,11.9,171.4,12.6,172.6,13.9z
		 M173.6,19.6c0-2.1-0.6-3.8-1.7-5c-1.1-1.2-2.6-1.8-4.5-1.8c-2.1,0-3.8,0.7-5.2,2.1c-1.4,1.4-2.2,3.4-2.6,5.8l13.9-0.2L173.6,19.6z
		"/>
	<path class="st0" d="M189.3,12.2v0.9l-0.2,0.1c-0.5-0.1-0.9-0.1-1.3-0.1c-1.1,0-2.2,0.5-3.3,1.5c-1.1,1-2.1,2.6-3.2,4.8v14.4h-1
		V12.2l1-0.2v5.3h0.2c1-1.8,2-3.1,3.1-4c1.1-0.9,2.2-1.3,3.5-1.3C188.4,12.1,188.9,12.1,189.3,12.2z"/>
	<path class="st0" d="M203.6,12.9l-0.2,0.9l-0.3,0c-1.3-0.6-2.7-1-4-1c-1.6,0-2.9,0.4-3.9,1.3c-1,0.9-1.5,1.9-1.5,3.2
		c0,1.2,0.4,2.1,1.2,2.8c0.8,0.7,2.1,1.4,3.8,2.2c1.2,0.6,2.2,1.1,2.9,1.5c0.7,0.4,1.4,1,1.9,1.7c0.5,0.7,0.8,1.6,0.8,2.5
		c0,1.1-0.3,2-0.9,2.9c-0.6,0.9-1.4,1.6-2.4,2.1c-1,0.5-2.2,0.8-3.5,0.8c-1,0-2-0.2-3-0.5c-1-0.3-1.8-0.7-2.6-1.2l0.1-0.8l0.2-0.1
		c1.5,1.1,3.2,1.7,5.1,1.7c1.8,0,3.2-0.5,4.3-1.4c1.1-1,1.6-2.1,1.6-3.4c0-1.2-0.4-2.1-1.2-2.7c-0.8-0.7-2.1-1.4-3.8-2.2
		c-1.2-0.6-2.2-1.1-3-1.6c-0.8-0.5-1.4-1.1-1.9-1.8c-0.5-0.7-0.8-1.6-0.8-2.6c0-1.6,0.6-2.9,1.8-3.9c1.2-1,2.7-1.5,4.6-1.5
		C200.5,12,202,12.3,203.6,12.9z"/>
	<path class="st1" d="M234.6,30c0.1,0.4,0.3,0.8,0.5,1.1s0.4,0.5,0.6,0.7c0.2,0.2,0.5,0.3,0.9,0.4c0.4,0.1,0.8,0.2,1.3,0.2l0.1,0.1
		l-0.2,1.4c-0.5,0-0.9,0-1.4,0c-0.4,0-0.8,0-1.2-0.1c-0.4,0-0.8,0-1.1,0c-0.7,0-1.3,0-1.9,0.1c-0.6,0-1.1,0.1-1.6,0.1
		c-0.6,0.1-1.1,0.1-1.6,0.2l-0.1-0.2l0.1-1.3c1.2-0.1,2-0.2,2.4-0.4c0.4-0.2,0.6-0.5,0.6-0.9c0-0.4-0.1-1-0.3-1.6l-1.1-3.7
		c-0.2,0-0.5,0-0.8,0c-0.3,0-0.6,0-1,0c-0.3,0-0.7,0-1,0c-0.3,0-0.6,0-0.8,0c-0.7,0-1.3,0-2.1,0.1c-0.7,0.1-1.3,0.1-1.6,0.2
		l-1.3,3.5c-0.2,0.6-0.3,1.1-0.3,1.3c0,0.5,0.2,0.9,0.5,1.1c0.3,0.2,0.8,0.3,1.6,0.3h1.9l0.1,0.1l-0.2,1.5c-0.5,0-1-0.1-1.5-0.1
		c-0.5,0-1-0.1-1.5-0.1c-0.6,0-1.1,0-1.7,0c-0.4,0-0.8,0-1.3,0c-0.4,0-0.8,0-1.2,0.1c-0.4,0-0.9,0-1.3,0l0.3-1.6
		c0.6-0.1,1.1-0.3,1.5-0.6c0.4-0.4,0.8-1,1.1-2l6.6-17.4l2.1-0.6h0.3c0.6,2.1,1.1,4.1,1.7,6.3c0.2,0.9,0.5,1.9,0.8,2.9
		c0.3,1,0.6,2,0.9,3c0.3,1,0.6,2.1,1,3.1C234,28,234.3,29,234.6,30z M224,24.5h3c0.5,0,1,0,1.6-0.1s1.1-0.1,1.5-0.1l-2.7-8.9h-0.2
		L224,24.5z"/>
	<path class="st1" d="M243.9,24.5l-0.1,5.1c0,0.6,0,1.1,0.1,1.5c0,0.4,0.2,0.6,0.3,0.9c0.2,0.2,0.4,0.3,0.7,0.4
		c0.3,0.1,0.8,0.1,1.3,0.1l0.1,0.1l-0.3,1.4c-0.5,0-0.9,0-1.2-0.1c-0.4,0-0.7,0-1.2,0c-0.4,0-0.8,0-1.2,0c-0.4,0-0.9,0-1.3,0
		c-0.5,0-0.9,0-1.3,0c-0.5,0-0.9,0-1.3,0.1l0.3-1.5c0.5-0.1,1-0.2,1.3-0.3c0.3-0.1,0.6-0.2,0.8-0.4c0.2-0.2,0.3-0.4,0.4-0.8
		c0.1-0.3,0.1-0.7,0.1-1.2l0-14.3c0-0.7-0.1-1.2-0.3-1.5c-0.2-0.2-0.5-0.4-1-0.4c-0.1,0-0.2,0-0.4,0c-0.1,0-0.3,0-0.4,0
		c-0.1,0-0.3,0-0.4,0l-0.1-0.1l0.2-1.5c0.5,0,0.9,0,1.4,0.1c0.4,0,0.8,0,1.2,0s0.8,0,1.1,0c0.3,0,0.7,0,1.1,0c0.5,0,0.9,0,1.4-0.1
		c0.5,0,1.1,0,1.7-0.1c2.1,0,3.8,0.5,5,1.4c1.2,1,1.8,2.3,1.8,3.9c0,1.4-0.4,2.6-1.3,3.7c-0.9,1.1-2.1,2.1-3.7,2.8l3.7,5.9
		c0.3,0.5,0.7,1,1,1.4c0.3,0.4,0.6,0.7,1,0.9c0.3,0.2,0.7,0.4,1.1,0.5c0.4,0.1,0.8,0.2,1.2,0.2l0.1,0.1l-0.2,1.2l-2.9,0.4
		c-0.6,0-1.2-0.3-1.8-0.9c-0.6-0.6-1.2-1.4-1.8-2.4l-3.6-6.6H243.9z M247.4,22.9c0.7-0.2,1.3-0.6,1.8-1c0.5-0.4,0.9-0.9,1.3-1.5
		c0.4-0.6,0.6-1.5,0.6-2.5c0-3-2.1-4.5-6.2-4.5c-0.2,0-0.4,0.1-0.5,0.2c-0.1,0.1-0.1,0.3-0.1,0.6c0,0.9-0.1,1.7-0.1,2.5
		c0,0.8-0.1,1.5-0.1,2.1c0,0.7,0,1.3-0.1,1.9c0,0.6,0,1.2,0,1.8L247.4,22.9z"/>
	<path class="st1" d="M267.8,34.2c-1.5,0-2.9-0.2-4.2-0.7c-1.3-0.5-2.3-1.2-3.2-2.1s-1.6-2-2-3.3c-0.5-1.3-0.7-2.7-0.7-4.4
		c0-1.7,0.3-3.3,0.9-4.8c0.6-1.5,1.4-2.7,2.5-3.8c1.1-1.1,2.3-1.9,3.8-2.5c1.5-0.6,3-0.9,4.8-0.9c0.7,0,1.4,0,2.1,0.1
		c0.7,0.1,1.3,0.2,1.9,0.3c0.7,0.1,1.3,0.2,1.9,0.4l0.1,0.2c-0.1,0.5-0.2,1.1-0.3,1.7c-0.1,0.5-0.2,1.1-0.3,1.8
		c-0.1,0.7-0.2,1.4-0.2,2.2l-1.6,0.1c0-0.2,0-0.3,0-0.5c0-0.2,0-0.3,0.1-0.5c0-0.2,0-0.4,0-0.6c0-2.1-1.7-3.2-5-3.2
		c-1.1,0-2.2,0.2-3.1,0.6c-0.9,0.4-1.7,1-2.4,1.8c-0.6,0.8-1.1,1.7-1.5,2.8c-0.4,1.1-0.5,2.3-0.5,3.7c0,1.5,0.2,2.9,0.6,4.1
		c0.4,1.2,0.9,2.3,1.6,3.1c0.7,0.9,1.5,1.5,2.4,2s2,0.7,3.2,0.7c1.6,0,2.8-0.4,3.7-1.3c0.9-0.9,1.6-2.2,2-4.1l1.6-0.1
		c-0.1,0.6-0.3,1.2-0.4,1.9c-0.1,0.5-0.2,1.1-0.3,1.8c-0.1,0.6-0.2,1.3-0.2,1.9l-0.2,0.3c-0.6,0.2-1.2,0.5-2,0.7
		c-0.6,0.2-1.3,0.3-2.2,0.5C269.7,34.1,268.8,34.2,267.8,34.2z"/>
	<path class="st1" d="M296.7,15.3c-0.1,1.2-0.1,2.6-0.2,4c-0.1,1.4-0.1,2.8-0.2,4.1c0,1.3-0.1,2.6-0.1,3.8c0,1.2,0,2.1,0,2.8
		c0,0.9,0.1,1.5,0.3,1.9s0.6,0.5,1.2,0.5c0.2,0,0.4,0,0.5,0s0.3,0,0.5,0c0.2,0,0.4,0,0.5-0.1l0.1,0.1l-0.3,1.6c-0.5,0-1,0-1.5,0
		c-0.4,0-0.9,0-1.4-0.1s-0.9,0-1.3,0c-0.3,0-0.7,0-1.1,0c-0.4,0-0.9,0-1.3,0c-0.5,0-1,0-1.5,0l0.3-1.5c0.5,0,1-0.1,1.3-0.2
		c0.3-0.1,0.6-0.3,0.8-0.6c0.2-0.3,0.3-0.6,0.4-1.1s0.1-1.1,0.1-1.8v-5.1h-2c-0.5,0-1.1,0-1.7,0c-0.6,0-1.1,0-1.5,0
		c-0.3,0-0.7,0-1.3,0.1c-0.6,0-1.3,0.1-1.9,0.1c-0.7,0.1-1.6,0.1-2.4,0.2l-0.1,6.1c0,0.9,0.1,1.5,0.3,1.9s0.6,0.5,1.2,0.5
		c0.2,0,0.4,0,0.5,0s0.3,0,0.5,0c0.2,0,0.4,0,0.5-0.1l0.1,0.1l-0.3,1.6c-0.4,0-0.7,0-1-0.1c-0.3,0-0.6,0-0.9,0s-0.7,0-1,0
		c-0.5,0-1,0-1.6,0c-0.6,0-1.1,0.1-1.7,0.1s-1,0.1-1.3,0.1c-0.4,0-0.5,0.1-0.6,0.1l0.2-1.6c0.5-0.1,1-0.2,1.3-0.4s0.6-0.3,0.8-0.5
		c0.2-0.2,0.3-0.5,0.4-0.8c0.1-0.3,0.1-0.7,0.1-1.2l0-14.3c0-0.7-0.1-1.2-0.2-1.5c-0.2-0.2-0.5-0.4-1-0.4c-0.1,0-0.2,0-0.4,0
		c-0.1,0-0.3,0-0.4,0c-0.1,0-0.3,0-0.4,0l-0.1-0.1l0.2-1.5c0.5,0,0.9,0,1.4,0.1c0.4,0,0.8,0,1.2,0s0.8,0,1.1,0c0.4,0,0.8,0,1.2,0
		c0.4,0,0.8-0.1,1.2-0.1c0.4,0,0.8-0.1,1.3-0.2l-0.1,1.5c-0.5,0.1-0.9,0.2-1.2,0.3c-0.3,0.1-0.5,0.3-0.6,0.5
		c-0.1,0.2-0.2,0.5-0.3,0.9s-0.1,0.8-0.1,1.4l-0.2,5.5l5.7,0c0.8,0,1.6,0,2.4-0.1s1.6-0.1,2.6-0.3l0-6.2c0-0.7-0.1-1.2-0.2-1.5
		c-0.2-0.2-0.5-0.4-1-0.4c-0.1,0-0.2,0-0.4,0c-0.1,0-0.3,0-0.4,0c-0.1,0-0.3,0-0.4,0l-0.1-0.1l0.2-1.5c0.5,0,0.9,0,1.3,0.1
		c0.3,0,0.7,0,1.1,0c0.4,0,0.7,0,1,0c0.4,0,0.9,0,1.3,0c0.5,0,0.9-0.1,1.3-0.1c0.5,0,1-0.1,1.4-0.2l-0.1,1.5
		c-0.4,0.1-0.8,0.1-1.1,0.2c-0.3,0.1-0.5,0.2-0.6,0.3c-0.2,0.1-0.3,0.3-0.3,0.6C296.7,14.7,296.7,15,296.7,15.3z"/>
	<path class="st1" d="M308.3,15.3c-0.1,1.2-0.1,2.6-0.2,4c-0.1,1.4-0.1,2.8-0.2,4.2c0,1.3-0.1,2.6-0.1,3.8c0,1.2,0,2.1,0,2.8
		c0,0.9,0.1,1.5,0.3,1.9s0.6,0.5,1.2,0.5c0.2,0,0.4,0,0.6,0c0.2,0,0.4,0,0.6,0c0.2,0,0.4,0,0.6-0.1l0.1,0.1l-0.3,1.6
		c-0.5,0-1.1,0-1.6,0c-0.5,0-0.9,0-1.5-0.1s-1,0-1.4,0c-0.5,0-0.9,0-1.4,0.1c-0.5,0-0.9,0.1-1.3,0.1c-0.5,0.1-0.9,0.1-1.3,0.2
		l0.2-1.6c1.1-0.2,1.8-0.5,2.2-0.9c0.4-0.4,0.6-1.1,0.6-2l0-14.3c0-0.7-0.1-1.2-0.2-1.5c-0.2-0.2-0.5-0.4-1-0.4c-0.1,0-0.3,0-0.4,0
		c-0.2,0-0.3,0-0.5,0c-0.2,0-0.4,0-0.5,0l-0.1-0.1L303,12c0.5,0,1,0,1.5,0.1c0.4,0,0.9,0,1.3,0c0.5,0,0.9,0,1.2,0c0.4,0,0.8,0,1.3,0
		c0.5,0,0.9-0.1,1.3-0.1c0.5,0,0.9-0.1,1.4-0.2l-0.1,1.5c-1,0.1-1.6,0.3-1.9,0.6C308.5,14.2,308.4,14.7,308.3,15.3z"/>
	<path class="st1" d="M315.1,15.6c-0.2-0.7-0.6-1.1-1.1-1.4c-0.5-0.3-1.2-0.5-2.1-0.5l-0.1-0.1l0.2-1.5c0.5,0,1,0,1.5,0.1
		c0.4,0,0.9,0,1.3,0c0.4,0,0.8,0,1.1,0c0.5,0,1,0,1.6-0.1c0.6,0,1.1-0.1,1.7-0.1c0.6-0.1,1.2-0.1,1.9-0.2l0.1,0.2l-0.1,1.3
		c-1.2,0.1-2,0.2-2.4,0.4c-0.4,0.2-0.6,0.5-0.6,1c0,0.1,0.1,0.5,0.2,1c0.1,0.5,0.3,1.2,0.5,1.9c0.2,0.8,0.4,1.6,0.7,2.6
		c0.3,0.9,0.5,1.9,0.8,2.8c0.6,2.2,1.3,4.7,2.1,7.4h0.3c0.3-0.7,0.6-1.6,1-2.7s0.8-2.1,1.2-3.2c0.4-1.1,0.8-2.2,1.2-3.3
		c0.4-1.1,0.8-2.1,1.1-3c0.3-0.9,0.6-1.7,0.8-2.3c0.2-0.6,0.3-1,0.3-1.2c0-0.5-0.2-0.8-0.5-1c-0.4-0.2-1-0.3-1.8-0.3h-1.8l-0.1-0.1
		l0.2-1.5c0.5,0,1,0.1,1.6,0.1c0.5,0,1,0.1,1.5,0.1c0.6,0,1.1,0,1.7,0c0.4,0,0.8,0,1.3,0s0.8,0,1.2,0c0.4,0,0.8,0,1.3-0.1l-0.3,1.6
		c-0.3,0-0.6,0.1-0.9,0.1c-0.2,0-0.4,0.1-0.6,0.3c-0.2,0.1-0.3,0.3-0.4,0.5c-0.1,0.2-0.2,0.5-0.4,0.8l-7.3,18.4l-2.2,0.7
		c-0.6-1.9-1.2-4-1.9-6.1c-0.6-1.8-1.2-3.8-1.9-6S315.9,17.8,315.1,15.6z"/>
	<path class="st1" d="M338.8,30.2c0,0.5,0,0.8,0.1,1.1c0,0.3,0.2,0.5,0.4,0.6c0.2,0.1,0.5,0.2,0.8,0.3c0.4,0,0.8,0.1,1.4,0.1
		c1.3,0,2.4,0,3.2-0.1c0.8-0.1,1.4-0.3,1.9-0.5c0.5-0.3,0.8-0.7,1-1.3c0.2-0.6,0.4-1.3,0.5-2.2l1.5-0.2l0.1,0.2
		c-0.1,0.6-0.2,1.2-0.3,1.8c-0.1,0.5-0.2,1.1-0.3,1.8c-0.1,0.7-0.2,1.4-0.3,2.1l-0.2,0.2c-1.4,0-2.7-0.1-3.9-0.1
		c-0.5,0-1.1,0-1.7-0.1s-1.2,0-1.7,0c-0.6,0-1.1,0-1.6,0c-0.5,0-1,0-1.4,0c-0.7,0-1.3,0-1.8,0.1c-0.6,0-1.1,0.1-1.5,0.1
		c-0.5,0.1-1,0.1-1.4,0.2l0.2-1.6c1-0.1,1.7-0.4,2.1-0.8s0.6-1.1,0.6-2.1l0-14.3c0-0.7-0.1-1.2-0.2-1.5c-0.2-0.2-0.5-0.4-1-0.4
		c-0.1,0-0.2,0-0.4,0c-0.1,0-0.3,0-0.4,0c-0.1,0-0.3,0-0.4,0l-0.1-0.1l0.2-1.5c0.5,0,1.1,0,1.6,0.1c0.5,0,1,0,1.5,0s1.1,0,1.6,0
		c1.4,0,2.5,0,3.6,0c1,0,1.9,0,2.7-0.1c0.8,0,1.5-0.1,2.1-0.1s1.2-0.1,1.8-0.2l0.1,0.2c-0.1,0.5-0.2,1.1-0.3,1.7
		c-0.1,0.5-0.2,1.1-0.3,1.8c-0.1,0.7-0.2,1.4-0.2,2.2l-1.6,0.1c0-0.2,0-0.4,0-0.5c0-0.2,0-0.3,0-0.5c0-0.2,0-0.3,0-0.4
		c0-0.5,0-1-0.1-1.3c-0.1-0.3-0.3-0.6-0.7-0.7c-0.4-0.2-0.9-0.3-1.6-0.3c-0.7,0-1.6-0.1-2.8-0.1c-0.5,0-1,0-1.3,0s-0.6,0.1-0.7,0.2
		c-0.2,0.1-0.3,0.2-0.3,0.4c0,0.2-0.1,0.4-0.1,0.7l-0.3,6.6c0.4,0,0.9,0,1.6,0s1.3,0,1.9,0c0.3,0,0.7,0,1.2-0.1
		c0.5,0,0.9-0.1,1.4-0.1c0.5-0.1,1.1-0.1,1.6-0.2l0.1,0.2l-0.5,2c-0.6,0-1.1,0-1.7,0c-0.5,0-1,0-1.5-0.1c-0.6,0-1.1,0-1.5,0
		c-0.5,0-1,0-1.5,0.1s-0.8,0.1-1.1,0.2c0,0.9,0,1.7-0.1,2.4c0,0.7,0,1.3-0.1,1.8c0,0.5,0,1,0,1.3S338.8,30,338.8,30.2z"/>
</g>
</svg>
