<?xml version="1.0" encoding="utf-8"?>
<!-- Generator: Adobe Illustrator 19.0.0, SVG Export Plug-In . SVG Version: 6.00 Build 0)  -->
<svg version="1.0" id="Layer_1" xmlns="http://www.w3.org/2000/svg" xmlns:xlink="http://www.w3.org/1999/xlink" x="0px" y="0px"
	 viewBox="0 0 317.1 316.8" enable-background="new 0 0 317.1 316.8" xml:space="preserve">
<g id="XMLID_32_">
	<polygon id="XMLID_58_" fill="#006FCF" points="0,0 0,316.8 316.8,316.8 316.8,172.6 316.8,0 	"/>
	<g id="XMLID_33_" transform="translate(0 16.675)">
		<defs>
			<filter id="Adobe_OpacityMaskFilter" filterUnits="userSpaceOnUse" x="0" y="81.6" width="316.8" height="129.7">
				<feColorMatrix  type="matrix" values="1 0 0 0 0  0 1 0 0 0  0 0 1 0 0  0 0 0 1 0"/>
			</filter>
		</defs>
		<mask maskUnits="userSpaceOnUse" x="0" y="81.6" width="316.8" height="129.7" id="bluebox-55x54-b_2_">
			<g id="XMLID_88_" filter="url(#Adobe_OpacityMaskFilter)">
				<polygon id="bluebox-55x54-a_2_" fill="#FFFFFF" points="0,81.6 0,211.3 316.9,211.3 316.9,81.6 				"/>
			</g>
		</mask>
		<path id="XMLID_89_" mask="url(#bluebox-55x54-b_2_)" fill="#FFFFFF" d="M278,136.9h23.8V81.6h-25.4v8.9l-5.6-8.9h-22.1v11.2
			l-5-11.2h-36.6c-1.8,0-3.5,0.1-5.1,0.4c-1.4,0.2-2.8,0.5-4.1,1c-1,0.3-2.1,0.7-3,1.2c-1.1,0.5-2.2,1.1-3.3,1.8V84v-2.4H72.1
			l-3.3,9.7l-3.3-9.7H37.8v11.3l-5-11.3H10.1L0,105.2V132v4.9h16.1l3-7.9h5.7l3,7.9h123.5v-8.1l6.2,8.1h34.1v-1.8v-2.3
			c0.9,0.6,1.8,1.1,2.7,1.5c0.9,0.4,1.9,0.8,2.9,1.1c1.2,0.4,2.4,0.7,3.6,0.9c2,0.4,3.9,0.5,5.8,0.5h20.4l3-7.9h5.7l3,7.9h34.2v-8.2
			L278,136.9z M316.8,207.9V156h-2.8H120.3l-5,7.1l-5-7.1H53.8v55.3h56.3l4.9-7.2l5.1,7.2h35.2v-11.9H155c4.4,0,8.4-0.8,11.9-2.1v14
			h24.6v-8l6.2,8h106.6c3.1,0,5.9-0.5,8.5-1.5C314.2,209.3,315.6,208.7,316.8,207.9z"/>
		<g id="XMLID_74_" transform="translate(10.3 14.223)">
			<defs>
				<filter id="Adobe_OpacityMaskFilter_1_" filterUnits="userSpaceOnUse" x="52.2" y="150.8" width="254.6" height="37.3">
					<feColorMatrix  type="matrix" values="1 0 0 0 0  0 1 0 0 0  0 0 1 0 0  0 0 0 1 0"/>
				</filter>
			</defs>
			<mask maskUnits="userSpaceOnUse" x="52.2" y="150.8" width="254.6" height="37.3" id="bluebox-55x54-d_2_">
				<g id="XMLID_76_" filter="url(#Adobe_OpacityMaskFilter_1_)">
					<polygon id="bluebox-55x54-c_2_" fill="#FFFFFF" points="306.8,188.1 306.8,150.8 52.2,150.8 52.2,188.1 					"/>
				</g>
			</mask>
			<path id="XMLID_77_" mask="url(#bluebox-55x54-d_2_)" fill="#006FCF" d="M294.2,180.6H275v7.5h18.9c8.1,0,12.9-4.9,12.9-11.9
				c0-6.7-4.3-10.6-11.6-10.6h-8.6c-2.1,0-3.6-1.4-3.6-3.6c0-2.2,1.5-3.7,3.6-3.7h16.2l3.3-7.6h-19.3c-8.1,0-12.9,4.9-12.9,11.6
				c0,6.9,4.5,10.8,11.6,10.8h8.6c2.1,0,3.7,1.4,3.7,3.6C297.9,179.1,296.3,180.6,294.2,180.6z M258.7,180.6h-19.1v7.5h18.9
				c8.1,0,12.9-4.9,12.9-11.9c0-6.7-4.3-10.6-11.6-10.6H251c-2.1,0-3.6-1.4-3.6-3.6c0-2.2,1.5-3.7,3.6-3.7h16.2l3.3-7.6h-19.3
				c-8.1,0-12.9,4.9-12.9,11.6c0,6.9,4.5,10.8,11.6,10.8h8.6c2.1,0,3.7,1.4,3.7,3.6C262.3,179.1,260.8,180.6,258.7,180.6z
				 M234.1,158.3v-7.6h-29.9v37.3h29.9v-7.5h-20.9V173h20.4v-7.5h-20.4v-7.3H234.1z M184.1,158.4c3.2,0,4.9,2.1,4.9,4.6
				c0,2.6-1.7,4.6-4.9,4.6h-10.5v-9.2H184.1z M173.6,174.6h4.2l11.1,13.4h11.1l-12.4-13.8c6.3-1.2,10.1-5.8,10.1-11.7
				c0-7-5-11.8-12.9-11.8h-20.3v37.3h9V174.6z M150.7,163.3c0,2.5-1.6,4.6-4.7,4.6h-10.7v-9.2H146
				C149.1,158.7,150.7,160.7,150.7,163.3z M126.3,150.8v37.3h9v-12.3h11.3c8.2,0,13.2-5.3,13.2-12.5c0-7.4-5-12.5-12.9-12.5H126.3z
				 M113.1,188.1h11.2l-15-18.8l14.9-18.5h-10.9l-9.2,11.8l-9.1-11.8H83.9l14.9,18.7l-14.9,18.7h10.9l9.2-12L113.1,188.1z
				 M82.1,158.3v-7.6H52.2v37.3h29.9v-7.5H61.2V173h20.4v-7.5H61.2v-7.3H82.1z"/>
		</g>
		<path id="XMLID_62_" fill="#006FCF" d="M265.6,105.6l-0.1-3.1l1.9,3.1l14.3,22.3h10.5V90.6h-8.7v21.6l0.1,2.8l-1.7-2.8l-14-21.6
			h-11v37.3h8.7V105.6z M229.9,104.5l2.7-7l2.7,7l3.3,8.3h-12L229.9,104.5z M244.7,127.9h10.1l-15.9-37.3h-11.8l-16,37.3h9.5l3.1-8
			h17.8L244.7,127.9z M205.6,127.9h0.5l3.7-7.9h-2.7c-6.1,0-9.8-3.8-9.8-10.5V109c0-5.9,3.3-10.3,9.7-10.3h9.7v-8.1h-10.5
			c-11.5,0-17.8,7.7-17.8,18.3v0.6C188.4,120.7,194.8,127.9,205.6,127.9z M173.8,127.9h9v-16.4V90.6h-9v20.7V127.9z M155,98.2
			c3.2,0,4.9,2.1,4.9,4.6c0,2.6-1.7,4.6-4.9,4.6h-10.5v-9.2H155z M144.5,114.5h4.2l11.1,13.4H171l-12.4-13.8
			c6.3-1.2,10.1-5.8,10.1-11.7c0-7-5-11.8-12.9-11.8h-20.3v37.3h9V114.5z M128.9,98.2v-7.6H99.1v37.3h29.9v-7.6H108v-7.4h20.4v-7.5
			H108v-7.3H128.9z M54.7,102.4l-0.2-10.1l10.3,35.6h8.1l10.3-35.4l-0.2,9.8v25.5h8.7V90.6H75.9L68.8,117l-7.1-26.4H46v37.3h8.7
			V102.4z M19,104.5l2.7-7l2.7,7l3.3,8.3h-12L19,104.5z M33.8,127.9h10.1L27.9,90.6H16.2l-16,37.3h9.5l3.1-8h17.8L33.8,127.9z"/>
	</g>
</g>
</svg>
