<?xml version="1.0" encoding="utf-8"?>
<!-- Generator: Adobe Illustrator 19.0.0, SVG Export Plug-In . SVG Version: 6.00 Build 0)  -->
<svg version="1.1" id="Layer_2" xmlns="http://www.w3.org/2000/svg" xmlns:xlink="http://www.w3.org/1999/xlink" x="0px" y="0px"
	 viewBox="0 0 209.4 80.7" style="enable-background:new 0 0 209.4 80.7;" xml:space="preserve">
<style type="text/css">
	.st0{fill:#EF572C;}
	.st1{fill:#59595B;}
</style>
<path class="st0" d="M16.9,0.4l-0.1,0.9l-0.1,0.1c-0.9-0.3-1.9-0.5-3-0.5C12,1,10.8,1.5,10,2.5C9.1,3.5,8.7,5,8.7,6.9v5.2h6l0.1,0.2
	l-0.1,0.8h-6v20.7h-1V13.1H4.5l-0.2-0.2l0.1-0.8h3.3V6.9c0-2.2,0.5-4,1.5-5.1c1-1.2,2.5-1.8,4.3-1.8C14.6,0,15.7,0.1,16.9,0.4z"/>
<path class="st0" d="M33.5,14.8c1.6,1.9,2.4,4.6,2.4,8c0,3.5-0.8,6.2-2.4,8.3c-1.6,2-3.8,3-6.7,3c-2.7,0-4.9-1-6.4-2.9
	c-1.6-1.9-2.4-4.6-2.4-8c0-3.5,0.8-6.2,2.4-8.3c1.6-2,3.8-3,6.7-3C29.8,11.9,31.9,12.8,33.5,14.8z M21.1,15.6
	c-1.5,1.8-2.2,4.4-2.2,7.6c0,3.1,0.7,5.5,2.1,7.3c1.4,1.8,3.3,2.6,5.7,2.6c2.5,0,4.5-0.9,6-2.7c1.5-1.8,2.2-4.4,2.2-7.6
	c0-3.1-0.7-5.5-2.1-7.3c-1.4-1.8-3.3-2.6-5.7-2.6C24.5,12.8,22.5,13.7,21.1,15.6z"/>
<path class="st0" d="M59.7,32.4l-0.2,0.9c-0.6,0.4-1.4,0.7-2.2,0.7c-0.9,0-1.6-0.3-2-1c-0.4-0.6-0.6-1.6-0.6-3h-0.2
	c-2.5,2.7-5,4-7.7,4c-1.8,0-3.2-0.6-4.2-1.7c-1-1.1-1.5-2.7-1.5-4.8V12.2l1-0.2v15.4c0,1.8,0.4,3.2,1.2,4.2c0.8,1,2,1.5,3.6,1.5
	c1.3,0,2.6-0.4,3.9-1.1c1.3-0.8,2.6-1.8,3.8-3.3V12.2l1-0.2v18c0,1,0.1,1.8,0.4,2.3c0.3,0.5,0.7,0.7,1.3,0.7c0.7,0,1.4-0.2,2-0.7
	L59.7,32.4z"/>
<path class="st0" d="M73.8,12.2v0.9l-0.2,0.1c-0.5-0.1-0.9-0.1-1.3-0.1c-1.1,0-2.2,0.5-3.3,1.5c-1.1,1-2.1,2.6-3.2,4.8v14.4h-1V12.2
	l1-0.2v5.3h0.2c1-1.8,2-3.1,3.1-4c1.1-0.9,2.2-1.3,3.5-1.3C72.9,12.1,73.3,12.1,73.8,12.2z"/>
<path class="st0" d="M98.5,12.4c1.1,0.4,2.1,0.9,2.9,1.5l-0.3,0.8h-0.3c-0.7-0.5-1.6-1-2.6-1.3c-1-0.4-2-0.5-3-0.5
	c-2.3,0-4.1,0.9-5.5,2.8c-1.4,1.9-2.1,4.4-2.1,7.5c0,3,0.7,5.4,2,7.2c1.4,1.8,3.2,2.7,5.5,2.7c1.1,0,2.1-0.2,3.2-0.6
	c1.1-0.4,2-0.9,2.9-1.5l0.3,0.1l-0.1,0.9c-0.8,0.6-1.8,1.1-2.9,1.5c-1.1,0.4-2.3,0.6-3.4,0.6c-2.6,0-4.6-1-6.1-3
	c-1.5-2-2.3-4.6-2.3-7.9c0-2.3,0.4-4.3,1.1-6c0.7-1.7,1.7-3,3-3.9c1.3-0.9,2.8-1.4,4.5-1.4C96.3,11.9,97.4,12,98.5,12.4z"/>
<path class="st0" d="M120.5,14.8c1.6,1.9,2.4,4.6,2.4,8c0,3.5-0.8,6.2-2.4,8.3c-1.6,2-3.8,3-6.7,3c-2.7,0-4.9-1-6.4-2.9
	c-1.6-1.9-2.4-4.6-2.4-8c0-3.5,0.8-6.2,2.4-8.3c1.6-2,3.8-3,6.7-3C116.8,11.9,118.9,12.8,120.5,14.8z M108.1,15.6
	c-1.5,1.8-2.2,4.4-2.2,7.6c0,3.1,0.7,5.5,2.1,7.3c1.4,1.8,3.3,2.6,5.7,2.6c2.5,0,4.5-0.9,6-2.7c1.5-1.8,2.2-4.4,2.2-7.6
	c0-3.1-0.7-5.5-2.1-7.3c-1.4-1.8-3.3-2.6-5.7-2.6C111.5,12.8,109.6,13.7,108.1,15.6z"/>
<path class="st0" d="M137.8,12.2v0.9l-0.2,0.1c-0.5-0.1-0.9-0.1-1.3-0.1c-1.1,0-2.2,0.5-3.3,1.5c-1.1,1-2.1,2.6-3.2,4.8v14.4h-1
	V12.2l1-0.2v5.3h0.2c1-1.8,2-3.1,3.1-4c1.1-0.9,2.2-1.3,3.5-1.3C136.9,12.1,137.3,12.1,137.8,12.2z"/>
<path class="st0" d="M156.1,13.6c1.1,1.1,1.6,2.7,1.6,4.8v15.4h-1.1l0.1-15.4c0-1.8-0.5-3.1-1.4-4.1c-0.9-1-2.2-1.5-3.9-1.5
	c-1.2,0-2.5,0.4-3.9,1.2c-1.3,0.8-2.6,1.9-3.8,3.4v16.4h-1V12.2l1-0.2v3.8h0.2c1.2-1.3,2.4-2.3,3.7-3c1.3-0.7,2.6-1,3.8-1
	C153.5,11.9,155,12.4,156.1,13.6z"/>
<path class="st0" d="M177,13.9c1.2,1.4,1.8,3.3,1.8,5.8c0,0.6,0,1.1,0,1.4l-0.3,0.3l-14.6,0.2c0,0.3,0,0.8,0,1.4
	c0,3,0.7,5.4,2.1,7.2c1.4,1.8,3.3,2.7,5.7,2.7c1.2,0,2.3-0.2,3.5-0.6c1.1-0.4,2.1-0.9,2.9-1.5l0.3,0.1l-0.1,1c-2,1.3-4.2,2-6.6,2
	c-2.7,0-4.8-1-6.3-2.9c-1.6-2-2.3-4.6-2.3-7.9c0-3.5,0.8-6.2,2.4-8.3c1.6-2,3.8-3.1,6.5-3.1C174,11.9,175.7,12.6,177,13.9z
	 M177.9,19.6c0-2.1-0.6-3.8-1.7-5c-1.1-1.2-2.6-1.8-4.5-1.8c-2.1,0-3.8,0.7-5.2,2.1c-1.4,1.4-2.2,3.4-2.6,5.8l13.9-0.2L177.9,19.6z"
	/>
<path class="st0" d="M193.7,12.2v0.9l-0.2,0.1c-0.5-0.1-0.9-0.1-1.3-0.1c-1.1,0-2.2,0.5-3.3,1.5c-1.1,1-2.1,2.6-3.2,4.8v14.4h-1
	V12.2l1-0.2v5.3h0.2c1-1.8,2-3.1,3.1-4c1.1-0.9,2.2-1.3,3.5-1.3C192.8,12.1,193.2,12.1,193.7,12.2z"/>
<path class="st0" d="M207.9,12.9l-0.2,0.9l-0.3,0c-1.3-0.6-2.7-1-4-1c-1.6,0-2.9,0.4-3.9,1.3c-1,0.9-1.5,1.9-1.5,3.2
	c0,1.2,0.4,2.1,1.2,2.8c0.8,0.7,2.1,1.4,3.8,2.2c1.2,0.6,2.2,1.1,2.9,1.5c0.7,0.4,1.4,1,1.9,1.7c0.5,0.7,0.8,1.6,0.8,2.5
	c0,1.1-0.3,2-0.9,2.9c-0.6,0.9-1.4,1.6-2.4,2.1c-1,0.5-2.2,0.8-3.5,0.8c-1,0-2-0.2-3-0.5c-1-0.3-1.8-0.7-2.6-1.2l0.1-0.8l0.2-0.1
	c1.5,1.1,3.2,1.7,5.1,1.7c1.8,0,3.2-0.5,4.3-1.4s1.6-2.1,1.6-3.4c0-1.2-0.4-2.1-1.2-2.7c-0.8-0.7-2.1-1.4-3.8-2.2
	c-1.2-0.6-2.2-1.1-3-1.6c-0.8-0.5-1.4-1.1-1.9-1.8c-0.5-0.7-0.8-1.6-0.8-2.6c0-1.6,0.6-2.9,1.8-3.9c1.2-1,2.7-1.5,4.6-1.5
	C204.9,12,206.4,12.3,207.9,12.9z"/>
<path class="st1" d="M27.5,73.7c0.2,0.7,0.5,1.2,0.7,1.7c0.3,0.4,0.6,0.8,1,1.1c0.4,0.3,0.9,0.5,1.4,0.7c0.6,0.1,1.2,0.3,2,0.3
	l0.1,0.2l-0.4,2.2c-0.8,0-1.5,0-2.2-0.1c-0.6,0-1.2-0.1-1.9-0.1c-0.6,0-1.2,0-1.7,0c-1,0-2,0-3,0.1c-1,0.1-1.8,0.1-2.6,0.2
	c-0.9,0.1-1.7,0.2-2.5,0.3l-0.2-0.4l0.2-2.1c1.9-0.1,3.1-0.4,3.8-0.6c0.7-0.3,1-0.8,1-1.4c0-0.7-0.2-1.5-0.5-2.6l-1.8-5.9
	c-0.3,0-0.7,0-1.2,0c-0.5,0-1,0-1.5,0c-0.5,0-1,0-1.6,0c-0.5,0-1,0-1.3,0c-1,0-2.1,0.1-3.3,0.2c-1.1,0.1-2,0.2-2.6,0.3l-2,5.6
	c-0.3,1-0.5,1.7-0.5,2.1c0,0.8,0.3,1.4,0.8,1.7c0.5,0.3,1.3,0.5,2.5,0.5h3.1l0.1,0.2l-0.3,2.3c-0.8,0-1.6-0.1-2.4-0.2
	c-0.7-0.1-1.5-0.1-2.4-0.2c-0.9,0-1.8-0.1-2.7-0.1c-0.6,0-1.3,0-2,0c-0.7,0-1.3,0-1.9,0.1c-0.7,0-1.3,0.1-2,0.1l0.4-2.5
	c1-0.1,1.8-0.4,2.4-1c0.6-0.6,1.2-1.6,1.8-3.1l10.5-27.5l3.4-0.9h0.4c0.9,3.3,1.8,6.6,2.7,9.9c0.4,1.4,0.8,2.9,1.3,4.5
	c0.5,1.6,0.9,3.2,1.5,4.8c0.5,1.6,1,3.3,1.5,4.9C26.5,70.6,27,72.2,27.5,73.7z M10.8,65.1h4.7c0.7,0,1.6,0,2.6-0.1
	c1-0.1,1.8-0.1,2.4-0.2l-4.2-14.1h-0.4L10.8,65.1z"/>
<path class="st1" d="M42.1,65.1l-0.2,8c0,1,0,1.7,0.1,2.3c0.1,0.6,0.2,1,0.5,1.3c0.3,0.3,0.7,0.5,1.2,0.6c0.5,0.1,1.2,0.1,2.1,0.1
	l0.1,0.2L45.4,80c-0.7,0-1.4-0.1-1.9-0.1c-0.6,0-1.2,0-1.8-0.1c-0.7,0-1.3,0-2,0c-0.7,0-1.4,0-2.1,0c-0.7,0-1.4,0-2,0.1
	c-0.7,0-1.4,0.1-2.1,0.1l0.5-2.4c0.8-0.1,1.5-0.2,2-0.4c0.5-0.2,1-0.4,1.3-0.7c0.3-0.3,0.5-0.7,0.6-1.2c0.1-0.5,0.2-1.1,0.2-1.9
	l0.1-22.6c0-1.1-0.1-1.9-0.4-2.3c-0.3-0.4-0.8-0.6-1.6-0.6c-0.2,0-0.4,0-0.6,0c-0.2,0-0.4,0-0.6,0c-0.2,0-0.4,0.1-0.6,0.1l-0.1-0.2
	l0.4-2.4c0.8,0,1.5,0.1,2.2,0.1c0.6,0,1.3,0.1,2,0.1c0.7,0,1.3,0,1.8,0c0.5,0,1.1,0,1.8,0c0.7,0,1.5,0,2.2-0.1
	c0.8,0,1.7-0.1,2.6-0.1c3.4,0,6,0.8,7.9,2.3C57,49,58,51.1,58,53.7c0,2.2-0.7,4.1-2.1,5.9c-1.4,1.8-3.3,3.3-5.8,4.4l5.9,9.4
	c0.5,0.9,1,1.6,1.5,2.2c0.5,0.6,1,1,1.5,1.4c0.5,0.4,1.1,0.6,1.7,0.8c0.6,0.2,1.2,0.2,2,0.2l0.2,0.2L62.6,80L58,80.6
	c-0.9,0-1.9-0.5-2.9-1.4c-1-0.9-2-2.2-2.8-3.7l-5.8-10.4H42.1z M47.7,62.6c1.1-0.4,2-0.9,2.9-1.6c0.7-0.6,1.4-1.4,2-2.4
	c0.6-1,0.9-2.3,0.9-3.9c0-4.7-3.3-7.1-9.8-7.1c-0.4,0-0.6,0.1-0.8,0.2c-0.1,0.2-0.2,0.5-0.2,1c-0.1,1.4-0.1,2.8-0.2,4
	c-0.1,1.2-0.1,2.3-0.2,3.4c0,1.1-0.1,2.1-0.1,3c0,1-0.1,1.9-0.1,2.8L47.7,62.6z"/>
<path class="st1" d="M79.9,80.4c-2.4,0-4.7-0.4-6.6-1.2c-2-0.8-3.7-1.9-5.1-3.3c-1.4-1.5-2.5-3.2-3.2-5.2c-0.8-2-1.1-4.3-1.1-6.9
	c0-2.7,0.5-5.2,1.4-7.6c0.9-2.3,2.2-4.3,3.9-6c1.7-1.7,3.6-3,5.9-4c2.3-0.9,4.8-1.4,7.5-1.4c1.1,0,2.2,0.1,3.3,0.2
	c1.1,0.1,2.1,0.3,3,0.5c1,0.2,2,0.4,3,0.6l0.2,0.3c-0.2,0.8-0.4,1.7-0.5,2.6c-0.2,0.8-0.3,1.8-0.5,2.8c-0.1,1.1-0.3,2.2-0.3,3.5
	l-2.6,0.2c0-0.3,0-0.5,0.1-0.9c0-0.3,0.1-0.5,0.1-0.9c0-0.3,0-0.6,0-0.9c0-3.3-2.6-5-7.9-5c-1.8,0-3.4,0.3-4.9,1
	c-1.5,0.7-2.7,1.6-3.7,2.8c-1,1.2-1.8,2.7-2.4,4.4c-0.6,1.7-0.8,3.7-0.8,5.8c0,2.4,0.3,4.5,0.9,6.5c0.6,1.9,1.4,3.6,2.5,4.9
	c1.1,1.4,2.4,2.4,3.9,3.2c1.5,0.8,3.2,1.1,5.1,1.1c2.5,0,4.4-0.7,5.9-2.1c1.5-1.4,2.5-3.5,3.2-6.4l2.6-0.2c-0.2,1-0.4,2-0.6,3
	c-0.2,0.9-0.3,1.8-0.5,2.8c-0.2,1-0.3,2-0.3,3L91,78.2c-0.9,0.4-2,0.8-3.1,1.1c-1,0.3-2.1,0.5-3.5,0.8C83,80.3,81.6,80.4,79.9,80.4z
	"/>
<path class="st1" d="M125.6,50.5c-0.1,2-0.2,4.1-0.3,6.3c-0.1,2.2-0.2,4.4-0.2,6.6c-0.1,2.1-0.1,4.1-0.2,5.9c0,1.8-0.1,3.3-0.1,4.4
	c0,1.5,0.2,2.4,0.5,2.9c0.3,0.5,0.9,0.7,1.9,0.7c0.3,0,0.6,0,0.8,0c0.3,0,0.5,0,0.8-0.1c0.3,0,0.6-0.1,0.8-0.1l0.1,0.2l-0.5,2.5
	c-0.8,0-1.6,0-2.4-0.1c-0.7,0-1.4-0.1-2.2-0.1c-0.8,0-1.4,0-2,0c-0.5,0-1.1,0-1.8,0c-0.7,0-1.4,0-2,0c-0.8,0-1.5,0.1-2.4,0.1
	l0.5-2.4c0.9,0,1.5-0.1,2.1-0.2c0.5-0.2,0.9-0.5,1.2-0.9c0.3-0.4,0.5-1,0.6-1.7c0.1-0.7,0.2-1.7,0.2-2.9v-8.1h-3.2
	c-0.9,0-1.8,0-2.7,0c-0.9,0-1.7,0-2.3,0c-0.4,0-1.1,0-2.1,0.1c-1,0.1-2,0.1-3,0.2c-1.2,0.1-2.5,0.2-3.8,0.3l-0.2,9.6
	c0,1.5,0.2,2.4,0.5,2.9c0.3,0.5,0.9,0.7,1.9,0.7c0.3,0,0.6,0,0.8,0c0.3,0,0.5,0,0.8-0.1c0.3,0,0.6-0.1,0.8-0.1l0.1,0.2l-0.5,2.5
	c-0.6,0-1.1-0.1-1.6-0.1c-0.4,0-0.9,0-1.5-0.1c-0.5,0-1,0-1.5,0c-0.8,0-1.6,0-2.6,0.1c-0.9,0-1.8,0.1-2.6,0.2
	c-0.8,0.1-1.5,0.1-2.1,0.2c-0.6,0.1-0.9,0.1-0.9,0.2l0.3-2.5c0.8-0.1,1.5-0.3,2-0.6c0.5-0.2,1-0.5,1.3-0.9c0.3-0.3,0.5-0.8,0.7-1.3
	c0.1-0.5,0.2-1.2,0.2-1.9l0.1-22.6c0-1.1-0.1-1.9-0.4-2.3c-0.3-0.4-0.8-0.6-1.6-0.6c-0.2,0-0.4,0-0.6,0c-0.2,0-0.4,0-0.6,0
	c-0.2,0-0.4,0.1-0.6,0.1L96,47.7l0.4-2.4c0.8,0,1.5,0.1,2.2,0.1c0.6,0,1.3,0.1,2,0.1c0.7,0,1.3,0,1.8,0c0.6,0,1.2,0,1.9-0.1
	c0.7,0,1.3-0.1,1.9-0.2c0.6-0.1,1.3-0.2,2-0.3l-0.2,2.4c-0.8,0.1-1.4,0.3-1.9,0.4c-0.4,0.2-0.8,0.4-1,0.8c-0.2,0.3-0.4,0.8-0.5,1.4
	s-0.2,1.3-0.2,2.3L104,61l9,0.1c1.3,0,2.6,0,3.8-0.1c1.2-0.1,2.6-0.2,4.2-0.4l0.1-9.8c0-1.1-0.1-1.9-0.4-2.3
	c-0.3-0.4-0.8-0.6-1.6-0.6c-0.2,0-0.4,0-0.6,0c-0.2,0-0.4,0-0.6,0c-0.2,0-0.4,0.1-0.6,0.1l-0.1-0.2l0.4-2.4c0.8,0,1.5,0.1,2,0.1
	c0.5,0,1.1,0,1.7,0.1c0.6,0,1.1,0,1.6,0c0.6,0,1.3,0,2.1-0.1c0.8,0,1.5-0.1,2.1-0.2c0.8-0.1,1.5-0.2,2.3-0.3l-0.2,2.4
	c-0.7,0.1-1.2,0.2-1.7,0.3c-0.4,0.1-0.8,0.3-1,0.5c-0.3,0.2-0.4,0.5-0.5,0.9C125.7,49.6,125.6,50,125.6,50.5z"/>
<path class="st1" d="M144.1,50.5c-0.1,1.9-0.2,4-0.3,6.3c-0.1,2.3-0.2,4.5-0.2,6.6c-0.1,2.1-0.1,4.1-0.2,5.9c0,1.8-0.1,3.3-0.1,4.4
	c0,1.5,0.2,2.4,0.5,2.9c0.3,0.5,0.9,0.7,1.9,0.7c0.3,0,0.6,0,1,0c0.3,0,0.6,0,0.9-0.1c0.3,0,0.6-0.1,1-0.1l0.1,0.2l-0.5,2.5
	c-0.9,0-1.7,0-2.6-0.1c-0.7,0-1.5-0.1-2.3-0.1c-0.8,0-1.5,0-2.2,0c-0.7,0-1.4,0-2.1,0.1c-0.7,0.1-1.4,0.1-2,0.2
	c-0.7,0.1-1.4,0.2-2.1,0.3l0.3-2.5c1.7-0.3,2.8-0.8,3.4-1.4c0.6-0.6,0.9-1.7,0.9-3.2l0.1-22.6c0-1.1-0.1-1.9-0.4-2.3
	c-0.3-0.4-0.8-0.6-1.6-0.6c-0.2,0-0.4,0-0.7,0c-0.3,0-0.5,0-0.8,0c-0.3,0-0.6,0.1-0.8,0.1l-0.1-0.2l0.4-2.4c0.8,0,1.6,0.1,2.4,0.1
	c0.7,0,1.4,0.1,2.1,0.1c0.7,0,1.4,0,1.9,0c0.6,0,1.3,0,2-0.1c0.7,0,1.4-0.1,2-0.2c0.7-0.1,1.4-0.2,2.1-0.3l-0.2,2.4
	c-1.5,0.2-2.5,0.5-3,0.9C144.4,48.8,144.1,49.5,144.1,50.5z"/>
<path class="st1" d="M154.8,50.9c-0.3-1-0.9-1.8-1.7-2.3c-0.8-0.5-1.9-0.7-3.3-0.8l-0.1-0.2l0.4-2.3c0.8,0,1.6,0.1,2.4,0.1
	c0.7,0,1.4,0.1,2.1,0.1c0.7,0,1.3,0,1.7,0c0.7,0,1.5,0,2.5-0.1c0.9-0.1,1.8-0.1,2.6-0.2c1-0.1,2-0.2,3-0.3l0.2,0.4l-0.2,2.1
	c-1.9,0.1-3.2,0.4-3.8,0.6c-0.6,0.3-1,0.8-1,1.6c0,0.2,0.1,0.7,0.3,1.6c0.2,0.8,0.4,1.8,0.8,3.1c0.3,1.2,0.7,2.6,1.1,4
	c0.4,1.5,0.8,3,1.3,4.5c1,3.5,2.1,7.5,3.4,11.8h0.5c0.5-1.2,1-2.6,1.6-4.2c0.6-1.6,1.3-3.3,1.9-5.1c0.7-1.7,1.3-3.5,1.9-5.2
	c0.6-1.7,1.2-3.3,1.7-4.7c0.5-1.4,0.9-2.6,1.2-3.6c0.3-1,0.5-1.6,0.5-1.9c0-0.8-0.3-1.3-0.9-1.6c-0.6-0.3-1.5-0.5-2.9-0.5h-2.8
	l-0.1-0.2l0.3-2.3c0.8,0.1,1.6,0.1,2.5,0.2c0.7,0.1,1.5,0.1,2.4,0.1c0.9,0,1.8,0,2.7,0c0.6,0,1.3,0,2,0s1.3,0,1.9-0.1
	c0.6,0,1.3-0.1,2-0.1l-0.4,2.5c-0.5,0-1,0.1-1.4,0.2c-0.4,0.1-0.7,0.2-0.9,0.4c-0.3,0.2-0.5,0.5-0.7,0.8c-0.2,0.3-0.4,0.7-0.6,1.2
	l-11.6,29l-3.4,1.2c-0.9-3.1-1.9-6.3-3-9.6c-0.9-2.9-1.9-6-3-9.5C157.1,58,156,54.5,154.8,50.9z"/>
<path class="st1" d="M192.2,74.1c0,0.7,0,1.3,0.1,1.7c0.1,0.4,0.3,0.8,0.6,1c0.3,0.2,0.7,0.4,1.3,0.4c0.6,0.1,1.3,0.1,2.3,0.1
	c2.1,0,3.8-0.1,5.1-0.2c1.3-0.1,2.3-0.4,3-0.9c0.7-0.4,1.2-1.1,1.5-2c0.3-0.9,0.6-2.1,0.8-3.5l2.4-0.3l0.2,0.3
	c-0.2,0.9-0.4,1.8-0.5,2.8c-0.2,0.8-0.3,1.8-0.5,2.9c-0.2,1.1-0.3,2.2-0.4,3.4l-0.3,0.3c-2.2,0-4.2-0.1-6.2-0.2
	c-0.9,0-1.7-0.1-2.7-0.1s-1.8,0-2.7-0.1c-0.9,0-1.7,0-2.5-0.1c-0.8,0-1.5,0-2.1,0c-1,0-2,0-2.9,0.1c-0.9,0.1-1.7,0.1-2.4,0.2
	c-0.8,0.1-1.5,0.2-2.2,0.3l0.3-2.5c1.6-0.2,2.7-0.6,3.3-1.3c0.6-0.6,0.9-1.7,0.9-3.3l0.1-22.6c0-1.1-0.1-1.9-0.4-2.3
	c-0.3-0.4-0.8-0.6-1.6-0.6c-0.2,0-0.4,0-0.6,0c-0.2,0-0.4,0-0.6,0c-0.2,0-0.4,0.1-0.6,0.1l-0.1-0.2l0.4-2.4c0.8,0,1.7,0.1,2.5,0.1
	c0.7,0,1.5,0.1,2.4,0.1c0.9,0,1.7,0,2.6,0c2.2,0,4,0,5.6,0c1.6,0,3-0.1,4.3-0.1c1.3-0.1,2.4-0.1,3.4-0.2s1.9-0.2,2.8-0.3l0.2,0.3
	c-0.2,0.8-0.3,1.7-0.5,2.6c-0.1,0.8-0.3,1.8-0.4,2.8c-0.1,1.1-0.3,2.2-0.3,3.5l-2.6,0.2c0-0.3,0-0.6,0.1-0.9c0-0.3,0-0.5,0-0.8
	c0-0.3,0-0.5,0-0.7c0-0.9-0.1-1.5-0.2-2.1c-0.1-0.5-0.5-0.9-1-1.2c-0.6-0.3-1.4-0.4-2.5-0.5c-1.1-0.1-2.6-0.1-4.5-0.1
	c-0.9,0-1.5,0-2,0.1c-0.5,0-0.9,0.1-1.1,0.2c-0.3,0.1-0.4,0.3-0.5,0.6c-0.1,0.3-0.1,0.7-0.1,1.2l-0.4,10.4c0.6,0,1.5,0,2.6,0
	c1.1,0,2.1,0,2.9,0c0.5,0,1.1,0,1.8-0.1c0.7-0.1,1.4-0.1,2.2-0.2c0.8-0.1,1.7-0.2,2.6-0.3l0.2,0.3l-0.8,3.2c-0.9,0-1.8,0-2.7-0.1
	c-0.8,0-1.6-0.1-2.4-0.1c-0.9,0-1.7,0-2.4,0c-0.8,0-1.6,0-2.3,0.1c-0.7,0.1-1.3,0.2-1.8,0.2c0,1.5-0.1,2.7-0.1,3.8
	c0,1.1-0.1,2-0.1,2.8c0,0.8,0,1.5,0,2.1S192.2,73.7,192.2,74.1z"/>
</svg>
