<?xml version="1.0" encoding="utf-8"?>
<!-- Generator: Adobe Illustrator 19.0.0, SVG Export Plug-In . SVG Version: 6.00 Build 0)  -->
<svg version="1.1" id="Layer_1" xmlns="http://www.w3.org/2000/svg" xmlns:xlink="http://www.w3.org/1999/xlink" x="0px" y="0px"
	 viewBox="0 0 186.7 30.2" style="enable-background:new 0 0 186.7 30.2;" xml:space="preserve">
<style type="text/css">
	.st0{fill:#6D6E71;}
</style>
<g id="XMLID_29_">
	<path id="XMLID_30_" class="st0" d="M10.1,3.7v20h-3v-20H0V1h17.2v2.7H10.1z"/>
	<path id="XMLID_32_" class="st0" d="M31.1,23.7V15c0-3.5,0.3-5.4-3.6-5.4c-4.6,0-4.5,3.1-4.5,6.5v7.6h-2.9V0H23v8.7
		C24,7.6,25.4,7,27.7,7c6.7,0,6.2,4.1,6.2,7.7v9H31.1z"/>
	<path id="XMLID_34_" class="st0" d="M40.9,16.5c0,3.5,0.6,5,4.6,5c1.8,0,4.1-0.2,4.1-2.5h2.7c0,4.2-3.7,5.1-6.9,5.1
		c-6.5,0-7.4-3.3-7.4-8.4c0-5.2,1-8.6,7.3-8.6c6.9,0,7.2,3.9,7.2,9.5H40.9z M45.3,9.5c-3.6,0-4.4,1.6-4.4,4.5h8.7
		C49.7,10.8,49,9.5,45.3,9.5z"/>
	<path id="XMLID_37_" class="st0" d="M67,3.7v7h11.3v2.7H67v10.3h-3V1h14.6v2.7H67z"/>
	<path id="XMLID_39_" class="st0" d="M95.4,22.1c-1.3,1.3-3.2,1.8-5.9,1.8c-2.7,0-4.6-0.5-5.9-1.8c-1.3-1.3-1.7-3.3-1.7-6.7
		s0.3-5.3,1.7-6.7C84.9,7.5,86.8,7,89.5,7c2.7,0,4.6,0.5,5.9,1.8c1.3,1.3,1.7,3.3,1.7,6.7S96.7,20.8,95.4,22.1z M89.5,9.6
		c-4.4,0-4.7,1.9-4.7,5.9s0.3,5.9,4.7,5.9c4.4,0,4.6-1.9,4.6-5.9C94.1,11.4,93.8,9.6,89.5,9.6z"/>
	<path id="XMLID_42_" class="st0" d="M112.4,23.7v-1.6c-1,1.1-2.6,1.9-5,1.9c-6.4,0-6.2-4.1-6.2-7.8v-9h2.9v8.7
		c0,3.5-0.3,5.4,3.6,5.4c4.6,0,4.5-3.1,4.5-6.5V7.2h2.9v16.5H112.4z"/>
	<path id="XMLID_44_" class="st0" d="M130.5,23.7V15c0-3.5,0.3-5.4-3.6-5.4c-4.6,0-4.5,3.1-4.5,6.5v7.6h-2.9V7.2h2.6v1.6
		c1-1.1,2.6-1.9,5-1.9c6.7,0,6.2,4.1,6.2,7.7v9H130.5z"/>
	<path id="XMLID_46_" class="st0" d="M149.2,23.7V22c-1.1,1.2-2.9,1.9-5.2,1.9c-6.4,0-6.8-4-6.8-8.5c0-4.8,0.7-8.5,6.6-8.5
		c2.2,0,4,0.4,5.2,1.8V0h2.9v23.7H149.2z M144.1,9.7c-3.4,0-4,1.8-4,5.8c0,4,0.6,5.8,4,5.8c3.7,0,4.9-1.2,4.9-5.8
		C149,10.8,147.9,9.7,144.1,9.7z"/>
	<path id="XMLID_49_" class="st0" d="M166.9,12c0-1.9-0.7-2.4-3-2.4c-4.2,0-3.9,4.1-3.9,7v7.1h-2.9V7.2h2.7v1.6
		c1.1-1.3,2.6-1.9,4.7-1.9c3.4,0,5.2,1.6,5.2,5H166.9z"/>
	<path id="XMLID_51_" class="st0" d="M178.1,30.2h-3l2.6-6.7l-6.1-16.3h3l4.6,12.9l4.5-12.9h3L178.1,30.2z"/>
</g>
</svg>
